<svg xmlns="http://www.w3.org/2000/svg" width="251.466" height="86.889" viewBox="0 0 251.466 86.889">
  <g id="Logo" transform="translate(-16.355 -10.025)">
    <path id="Union_2" data-name="Union 2" d="M-11247.625,178.517h-41.125a10.011,10.011,0,0,1-10.278-9.654V110.94h61.688l0,57.922a10.02,10.02,0,0,1-9.905,9.661C-11247.374,178.524-11247.5,178.521-11247.625,178.517Zm-45.139-9.663h49.5V115.992h-49.5Zm24.6-23.711-7.112,8.9-1.841-2.187,7.163-8.88-7.138-8.925,1.79-2.216,7.138,8.88,7.087-8.829,1.79,2.213-7.163,8.877,7.163,8.854-1.79,2.213Zm-36.01-39.031V96.46h18l5.138-4.826h25.7l5.141,4.826h17.992v9.651Z" transform="translate(11320.527 -81.609)" fill="#3f6474"/>
    <path id="Lytter" d="M33.184-2.856H9.656V-47.6H6.528V0H33.184ZM60.86-35.7,49.5-3.6,38.148-35.7h-3.2L47.94-.2,43.18,12.58h2.992L64.056-35.7ZM81.192-2.108c-2.924,0-4.148-1.5-4.148-4.692V-33.184H86.5V-35.7H77.044V-49.572l-2.992,1.7V-35.7H69.428v2.516h4.624v26.86c0,4.76,2.108,6.936,6.052,6.936A15.068,15.068,0,0,0,86.5-.68l.136-2.652A11.858,11.858,0,0,1,81.192-2.108Zm22.644,0c-2.924,0-4.148-1.5-4.148-4.692V-33.184h9.452V-35.7H99.688V-49.572l-2.992,1.7V-35.7H92.072v2.516H96.7v26.86c0,4.76,2.108,6.936,6.052,6.936A15.068,15.068,0,0,0,109.14-.68l.136-2.652A11.858,11.858,0,0,1,103.836-2.108Zm26.384-34.34c-8.092,0-14.416,6.868-14.416,18.5,0,13.124,7.208,18.7,14.212,18.7a20.841,20.841,0,0,0,12.376-3.672L141.032-5.1a18.059,18.059,0,0,1-10.676,3.2c-6.6,0-11.288-5.508-11.56-15.1h25.432a9.115,9.115,0,0,0,.136-1.632C144.364-29.58,138.856-36.448,130.22-36.448Zm-11.424,17C119.2-28.9,123.964-33.8,130.22-33.8c6.8,0,11.016,5.3,11.288,14.348Zm48.552-17a10.4,10.4,0,0,0-10,7.208V-35.7H154.36V0h2.992V-21.488c0-8.636,4.76-12.172,9.384-12.172a12.788,12.788,0,0,1,5.508,1.088l.748-2.924A12.979,12.979,0,0,0,167.348-36.448Z" transform="translate(94.829 78.634)" fill="#00040d"/>
  </g>
</svg>
